<?xml version="1.0" encoding="UTF-8" standalone="no"?>
<svg
   xmlns:dc="http://purl.org/dc/elements/1.1/"
   xmlns:cc="http://creativecommons.org/ns#"
   xmlns:rdf="http://www.w3.org/1999/02/22-rdf-syntax-ns#"
   xmlns:svg="http://www.w3.org/2000/svg"
   xmlns="http://www.w3.org/2000/svg"
   xmlns:sodipodi="http://sodipodi.sourceforge.net/DTD/sodipodi-0.dtd"
   xmlns:inkscape="http://www.inkscape.org/namespaces/inkscape"
   width="405.78494"
   height="107.027"
   version="1.1"
   id="svg6"
   sodipodi:docname="abapGit-textonly.svg"
   viewBox="0 0 405.78494 107.027"
   inkscape:version="0.92.4 (5da689c313, 2019-01-14)">
  <metadata
     id="metadata12">
    <rdf:RDF>
      <cc:Work
         rdf:about="">
        <dc:format>image/svg+xml</dc:format>
        <dc:type
           rdf:resource="http://purl.org/dc/dcmitype/StillImage" />
        <dc:title></dc:title>
      </cc:Work>
    </rdf:RDF>
  </metadata>
  <defs
     id="defs10" />
  <sodipodi:namedview
     pagecolor="#ffffff"
     bordercolor="#666666"
     borderopacity="1"
     objecttolerance="10"
     gridtolerance="10"
     guidetolerance="10"
     inkscape:pageopacity="0"
     inkscape:pageshadow="2"
     inkscape:window-width="1769"
     inkscape:window-height="1149"
     id="namedview8"
     showgrid="false"
     fit-margin-top="0"
     fit-margin-left="0"
     fit-margin-right="0"
     fit-margin-bottom="0"
     inkscape:zoom="0.78309685"
     inkscape:cx="132.81295"
     inkscape:cy="63.793007"
     inkscape:window-x="1565"
     inkscape:window-y="38"
     inkscape:window-maximized="0"
     inkscape:current-layer="svg6"
     viewbox-width="410" />
  <path
     d="m 55.462943,84.131 v -8.532 l -5.184,-0.864 c -0.78,-0.076 -1.27,-0.247 -1.47,-0.513 -0.202,-0.26 -0.287,-0.81 -0.258,-1.64 V 46.331 c 0.068,-7.43 -1.714,-12.577 -5.346,-15.443 -3.64,-2.867 -9.52,-4.235 -17.66,-4.104 -5.32,-0.218 -10.43,0.73 -15.34,2.848 -4.9099988,2.12 -7.5399988,6.72 -7.8899988,13.79 l 15.2299988,1.3 c 0,-3.13 0.67,-5.15 1.99,-6.04 1.33,-0.89 3.29,-1.29 5.88,-1.19 3.23,0.04 5.27,0.83 6.13,2.36 0.85,1.54 1.22,3.6 1.1,6.17 v 5.94 l -12.42,0.87 c -6.75,0.4 -11.806,1.93 -15.1599988,4.59 -3.36,2.67 -5.04000001,6.68 -5.04000001,12.04 -0.1930001,3.6 0.734,7.1 2.78000001,10.51 2.05,3.41 6.3799988,5.23 12.9899988,5.48 4.28,-0.05 7.87,-0.76 10.77,-2.12 2.904,-1.36 5.36,-3.07 7.37,-5.12 l 0.54,0.11 1.08,5.83 z m -22.787,-14.256 c -1.267,0.965 -2.757,1.843 -4.47,2.633 -1.71,0.79 -3.498,1.208 -5.36,1.255 -1.814,0.023 -3.286,-0.427 -4.413,-1.35 -1.127,-0.922 -1.708,-2.452 -1.74,-4.59 -0.04,-2.128 0.604,-3.676 1.93,-4.644 1.324,-0.967 3.56,-1.543 6.708,-1.728 l 7.344,-0.54 z m 46.077,14.256 0.756,-5.4 0.54,-0.108 c 1.68,1.937 3.854,3.544 6.52,4.82 2.666,1.275 5.785,1.937 9.355,1.984 6.756997,0.1 12.197997,-2.286 16.321997,-7.155 4.124,-4.86 6.243,-12.81 6.358,-23.84 -0.14,-9.94 -2.155,-17.06 -6.048,-21.35 -3.892,-4.3 -8.824,-6.39 -14.795997,-6.29 -3.27,0.01 -6.232,0.51 -8.882,1.5 -2.65,1 -5.126,2.44 -7.425,4.34 l -0.432,-0.11 V 2.591 h -22.248 l -1.188,8.75 5.94,2.05 c 0.53,0.163 0.9,0.433 1.1,0.81 0.2,0.38 0.3,0.865 0.29,1.46 v 52.7 c -0.02,2.67 -0.2,5.35 -0.53,8.046 -0.33,2.696 -0.7,5.27 -1.1,7.722 z m 2.376,-40.823 c 1.327,-0.914 2.91,-1.76 4.752,-2.538 1.84,-0.78 3.748,-1.2 5.724,-1.25 3.57,0.13 6.14,1.7 7.679997,4.72 1.54,3.02 2.29,6.7 2.25,11.04 0.01,5.45 -0.85,9.72 -2.57,12.79 -1.719997,3.08 -4.359997,4.64 -7.909997,4.7 -1.92,-0.04 -3.73,-0.45 -5.46,-1.26 -1.73,-0.81 -3.22,-1.79 -4.48,-2.96 z M 181.39294,84.131 v -8.532 l -5.184,-0.864 c -0.78,-0.076 -1.272,-0.247 -1.472,-0.513 -0.2,-0.26 -0.28,-0.81 -0.25,-1.64 V 46.331 c 0.07,-7.43 -1.71,-12.577 -5.34,-15.443 -3.63,-2.867 -9.52,-4.235 -17.66,-4.104 -5.31,-0.218 -10.42,0.73 -15.33,2.848 -4.91,2.12 -7.53,6.72 -7.88,13.79 l 15.23,1.3 c 0.01,-3.13 0.67,-5.15 2,-6.04 1.33,-0.89 3.29,-1.29 5.89,-1.19 3.23,0.04 5.27,0.83 6.13,2.36 0.85,1.54 1.22,3.6 1.11,6.17 v 5.94 l -12.42,0.87 c -6.75,0.4 -11.8,1.93 -15.16,4.59 -3.36,2.67 -5.04,6.68 -5.034,12.04 -0.192,3.6 0.735,7.1 2.78,10.51 2.05,3.41 6.38,5.23 12.99,5.48 4.28,-0.05 7.873,-0.76 10.775,-2.12 2.906,-1.36 5.36,-3.07 7.37,-5.12 l 0.54,0.11 1.08,5.83 z m -22.787,-14.256 c -1.268,0.965 -2.757,1.843 -4.47,2.633 -1.712,0.79 -3.498,1.208 -5.36,1.255 -1.815,0.023 -3.286,-0.427 -4.413,-1.35 -1.128,-0.922 -1.708,-2.452 -1.742,-4.59 -0.038,-2.128 0.605,-3.676 1.93,-4.644 1.326,-0.967 3.562,-1.543 6.71,-1.728 l 7.344,-0.54 z m 61.844,37.152 v -8.532 l -11.232,-0.972 c -0.78,-0.03 -1.27,-0.187 -1.47,-0.473 -0.2,-0.29 -0.287,-0.85 -0.258,-1.69 V 79.91 c 2.277,1.83 4.716,3.21 7.317,4.13 2.61,0.92 5.31,1.37 8.13,1.37 5.89,-0.14 10.45,-1.86 13.69,-5.16 3.24,-3.3 5.49,-7.31 6.75,-12.05 1.26,-4.74 1.87,-9.33 1.81,-13.8 -0.11,-9.94 -2.05,-17.06 -5.83,-21.357 -3.78,-4.3 -8.75,-6.394 -14.9,-6.29 -3.13,0.02 -6.31,0.63 -9.54,1.82 -3.23,1.197 -6.16,2.86 -8.81,4.984 l -0.54,-0.216 -0.97,-5.505 h -19.01 l -1.18,8.745 5.73,2.056 c 0.53,0.163 0.9,0.433 1.11,0.81 0.21,0.38 0.308,0.865 0.3,1.46 v 54.54 c 0.016,0.79 -0.12,1.34 -0.4,1.66 -0.285,0.317 -0.8,0.52 -1.54,0.607 l -4.32,0.65 v 8.64 z m -12.744,-63.503 c 1.224,-0.87 2.826,-1.722 4.806,-2.552 1.98,-0.83 4.122,-1.27 6.426,-1.33 2.745,-0.04 4.95,1.18 6.615,3.66 1.665,2.48 2.52,6.48 2.565,12 0.025,5.36 -0.78,9.6 -2.416,12.72 -1.636,3.12 -4.25,4.72 -7.844,4.78 -2.023,-0.04 -3.917,-0.47 -5.683,-1.28 -1.77,-0.81 -3.26,-1.75 -4.47,-2.82 z m 118.285,11.555 v -8.64 h -33.155 l -1.513,9.72 h 11.988 v 14.148 c 0.002,0.682 -0.137,1.154 -0.418,1.418 -0.282,0.263 -0.718,0.438 -1.31,0.526 -1.278,0.22 -2.718,0.4 -4.32,0.54 -1.602,0.14 -3.15,0.212 -4.644,0.216 -7.715,-0.07 -13.48,-2.576 -17.293,-7.52 -3.814,-4.942 -5.717,-11.904 -5.71,-20.883 0.056,-8.566 2.022,-15.275 5.9,-20.13 3.876,-4.852 9.325,-7.322 16.347,-7.41 1.71,0.01 3.447,0.15 5.21,0.418 1.765,0.27 3.34,0.6 4.726,0.99 0.477,0.09 0.846,0.29 1.107,0.6 0.26,0.31 0.468,0.83 0.62,1.57 l 1.62,9.72 11.99,0.87 V 10.801 c -3.414,-2.152 -7.334,-3.736 -11.76,-4.753 -4.425,-1.017 -8.64,-1.52 -12.65,-1.512 -13.593,0.234 -23.745,4.06 -30.454,11.475 -6.71,7.416 -10.058,17.02 -10.044,28.81 -0.19,11.85 2.73,21.52 8.76,29.01 6.033,7.49 16.325,11.355 30.875,11.596 4.575,0.027 9.33,-0.35 14.27,-1.134 4.938,-0.783 9.506,-2.133 13.702,-4.05 v -23.22 c -0.01,-0.528 0.11,-0.902 0.37,-1.12 0.26,-0.218 0.71,-0.35 1.35,-0.392 z m 26.965,-45.575 c -0.02,-3.09 -0.875,-5.443 -2.566,-7.06 -1.692,-1.618 -4.113,-2.433 -7.263,-2.444 -3.09,0.01 -5.48,0.82 -7.16,2.44 -1.68,1.61 -2.53,3.97 -2.55,7.06 0.02,3.1 0.87,5.49 2.55,7.17 1.68,1.68 4.07,2.53 7.17,2.55 3.15,-0.02 5.57,-0.87 7.26,-2.55 1.69,-1.68 2.55,-4.07 2.57,-7.17 z m 7.018,74.627 v -8.532 l -5.508,-0.756 c -0.78,-0.076 -1.27,-0.247 -1.47,-0.513 -0.2,-0.27 -0.287,-0.82 -0.257,-1.65 V 27.861 h -22.356 l -1.188,8.75 5.83,2.05 c 0.53,0.164 0.9,0.434 1.1,0.81 0.2,0.38 0.3,0.866 0.29,1.46 v 31.75 c 0.02,0.786 -0.08,1.32 -0.3,1.608 -0.22,0.284 -0.7,0.47 -1.43,0.552 l -5.51,0.756 v 8.532 z m 42.92,-12.528 c -1.31,0.497 -2.713,0.907 -4.212,1.23 -1.498,0.32 -3.01,0.487 -4.536,0.498 -2.857,0.03 -4.81,-0.65 -5.86,-2.038 -1.047,-1.388 -1.542,-3.66 -1.484,-6.818 v -25.81 h 16.092 v -10.8 h -15.228 c -0.414,0 -0.666,-0.084 -0.756,-0.258 -0.09,-0.173 -0.126,-0.447 -0.108,-0.823 V 11.448 h -10.26 c -0.528,5.816 -1.9,10.087 -4.117,12.81 -2.22,2.726 -5.67,4.324 -10.36,4.794 v 9.62 h 7.56 c 0.41,0.01 0.66,0.11 0.75,0.3 0.09,0.2 0.12,0.46 0.11,0.79 v 28.279 c -0.07,6.063 1.28,10.486 4.03,13.27 2.75,2.783 7.31,4.155 13.67,4.117 3.13,-0.038 6.26,-0.475 9.37,-1.31 3.11,-0.834 5.85,-1.838 8.23,-3.01 z"
     id="path4"
     inkscape:connector-curvature="0"
     style="fill:#362701" />
</svg>
