<svg width="170mm" height="170mm" version="1.1" viewBox="0 0 170 170" xmlns="http://www.w3.org/2000/svg" xmlns:osb="http://www.openswatchbook.org/uri/2009/osb">
 <g transform="translate(-20.278 -11.661)">
  <path d="m119.63 55.417 7.3705 11.15-7.1816 3.7798-6.8036-11.15zm-29.101 1.2277-7.3705 11.15 7.1815 3.7798 6.8036-11.15zm89.58 94.683h9.6384v7.9375h-9.6384zm-17.198 0.37796h14.174v7.9375h-14.174zm-13.796-0.37798h10.961v7.9375h-10.961zm25.135-12.095h7.5595v7.9375h-7.5595zm-19.655-0.18899h16.253v7.9375h-16.253zm-11.339 0h7.5595v7.9375h-7.5595zm21.356-11.528h10.205v7.9375h-10.205zm-13.418-0.18899h9.6384v7.9375h-9.6384zm-12.851-0.18901h10.394v7.9375h-10.394zm-106.78 24.757h15.875v7.9375h-15.875zm9.6384-11.717h10.961v7.9375h-10.961zm10.394 11.717h10.772v7.9375h-10.772zm4.3467-11.717h11.339v7.9375h-11.339zm6.8036-12.473h9.0714v7.9375h-9.0714zm-42.333 23.812h7.5595v7.9375h-7.5595zm7.1815-11.717h10.394v7.9375h-10.394zm20.033-12.284h11.906v7.9375h-11.906zm-12.662 0.37796h9.0714v7.9375h-9.0714zm59.72-12.095h72.004v7.9375h-72.004zm-52.728-0.18901h46.113v7.9375h-46.113zm78.997-13.418h37.042v8.3155h-37.042zm-69.926 0h63.5v8.3155h-63.5zm40.821-18.143a13.229 13.229 0 0 1-13.229 13.229 13.229 13.229 0 0 1-13.229-13.229 13.229 13.229 0 0 1 13.229-13.229 13.229 13.229 0 0 1 13.229 13.229zm50.649-0.37802a13.229 13.229 0 0 1-13.229 13.229 13.229 13.229 0 0 1-13.229-13.229 13.229 13.229 0 0 1 13.229-13.229 13.229 13.229 0 0 1 13.229 13.229zm-26.08-39.31a13.229 13.229 0 0 1-13.229 13.229 13.229 13.229 0 0 1-13.229-13.229 13.229 13.229 0 0 1 13.229-13.229 13.229 13.229 0 0 1 13.229 13.229z" opacity=".841" stroke="#32365f" stroke-width=".26458"/>
 </g>
</svg>
