<?xml version="1.0" encoding="UTF-8"?>
<svg class="svg-inline--fa fa-cloud fa-w-20" aria-hidden="true" data-icon="cloud" data-prefix="fas" focusable="false" role="img" version="1.1" viewBox="0 0 640 512" xmlns="http://www.w3.org/2000/svg" xmlns:cc="http://creativecommons.org/ns#" xmlns:dc="http://purl.org/dc/elements/1.1/" xmlns:rdf="http://www.w3.org/1999/02/22-rdf-syntax-ns#">
 <metadata>
  <rdf:RDF>
   <cc:Work rdf:about="">
    <dc:format>image/svg+xml</dc:format>
    <dc:type rdf:resource="http://purl.org/dc/dcmitype/StillImage"/>
    <dc:title/>
   </cc:Work>
  </rdf:RDF>
 </metadata>
 <path d="m256 32c-88.4 0-160 71.6-160 160 0 2.7 0.099219 5.3996 0.19922 8.0996-56 19.7-96.199 73.1-96.199 135.9 0 79.5 64.5 144 144 144h140.4v-118.34c-32.5-10.2-56-40.501-56-76.301 0-44.2 35.8-80 80-80 44.2 0 80 35.8 80 80 0 35.8-23.5 66.101-56 76.301v118.34h179.6c70.7 0 128-57.3 128-128 0-61.9-44-113.6-102.4-125.4 4.1-10.7 6.4004-22.4 6.4004-34.6 0-53-43-96-96-96-19.7 0-38.101 5.9992-53.301 16.199-27.7-48-79.399-80.199-138.7-80.199zm52.398 237.36c-8.8 0-16 7.2-16 16 0 8.8 7.2 16 16 16 8.8 0 16-7.2 16-16 0-8.8-7.2-16-16-16z"/>
</svg>
