<svg width="42.333mm" height="101.91mm" version="1.1" viewBox="0 0 42.333 101.91" xmlns="http://www.w3.org/2000/svg">
 <g transform="translate(-13.607 -16.992)">
  <path d="m34.785 16.992c-3.1714-8e-3 -6.357 1.8684-6.3608 5.8141v24.911c-8.5896 2.6958-14.817 10.715-14.817 20.197 0 9.4721 6.2177 17.489 14.817 20.187v24.824c4e-3 3.9883 3.0636 5.9672 6.3586 5.9752 3.1692 8e-3 6.3296-1.9965 6.3414-5.9752v-24.824c8.599-2.6988 14.817-10.715 14.817-20.187 0-9.4819-6.2271-17.501-14.817-20.197v-24.911c-0.0118-3.8301-3.1678-5.8063-6.3391-5.8141zm-0.0109 46.689c2.3283 0 4.2333 1.905 4.2333 4.2333 0 2.3283-1.905 4.2333-4.2333 4.2333-2.3283 0-4.2333-1.905-4.2333-4.2333 0-2.3283 1.905-4.2333 4.2333-4.2333z" stroke-width=".26458"/>
 </g>
</svg>
