<?xml version="1.0" encoding="UTF-8" standalone="no"?>
<!-- Created with Inkscape (http://www.inkscape.org/) -->

<svg
   xmlns:osb="http://www.openswatchbook.org/uri/2009/osb"
   xmlns:dc="http://purl.org/dc/elements/1.1/"
   xmlns:cc="http://creativecommons.org/ns#"
   xmlns:rdf="http://www.w3.org/1999/02/22-rdf-syntax-ns#"
   xmlns:svg="http://www.w3.org/2000/svg"
   xmlns="http://www.w3.org/2000/svg"
   xmlns:sodipodi="http://sodipodi.sourceforge.net/DTD/sodipodi-0.dtd"
   xmlns:inkscape="http://www.inkscape.org/namespaces/inkscape"
   width="210mm"
   height="297mm"
   viewBox="0 0 210 297"
   version="1.1"
   id="svg8"
   inkscape:version="0.92.4 (5da689c313, 2019-01-14)"
   sodipodi:docname="code-commit-wip.svg">
  <defs
     id="defs2">
    <linearGradient
       osb:paint="solid"
       id="linearGradient849">
      <stop
         id="stop847"
         offset="0"
         style="stop-color:#000000;stop-opacity:1;" />
    </linearGradient>
  </defs>
  <sodipodi:namedview
     id="base"
     pagecolor="#ffffff"
     bordercolor="#666666"
     borderopacity="1.0"
     inkscape:pageopacity="0.0"
     inkscape:pageshadow="2"
     inkscape:zoom="0.98994949"
     inkscape:cx="377.30177"
     inkscape:cy="651.32789"
     inkscape:document-units="mm"
     inkscape:current-layer="layer1"
     showgrid="false"
     inkscape:window-width="1797"
     inkscape:window-height="1092"
     inkscape:window-x="752"
     inkscape:window-y="104"
     inkscape:window-maximized="0"
     showguides="true"
     inkscape:guide-bbox="true"
     guidetolerance="20">
    <sodipodi:guide
       position="160.63988,144.31603"
       orientation="1,0"
       id="guide23"
       inkscape:locked="false" />
    <sodipodi:guide
       position="173.32428,141.48581"
       orientation="1,0"
       id="guide25"
       inkscape:locked="false" />
    <sodipodi:guide
       position="155.60807,144.78851"
       orientation="0,1"
       id="guide27"
       inkscape:locked="false" />
    <sodipodi:guide
       position="175.7353,230.02214"
       orientation="0,1"
       id="guide29"
       inkscape:locked="false" />
    <sodipodi:guide
       position="120.27128,238.40443"
       orientation="0,1"
       id="guide31"
       inkscape:locked="false" />
    <sodipodi:guide
       position="131.22934,136.57473"
       orientation="0,1"
       id="guide33"
       inkscape:locked="false" />
  </sodipodi:namedview>
  <metadata
     id="metadata5">
    <rdf:RDF>
      <cc:Work
         rdf:about="">
        <dc:format>image/svg+xml</dc:format>
        <dc:type
           rdf:resource="http://purl.org/dc/dcmitype/StillImage" />
        <dc:title></dc:title>
      </cc:Work>
    </rdf:RDF>
  </metadata>
  <g
     inkscape:label="Layer 1"
     inkscape:groupmode="layer"
     id="layer1">
    <path
       id="path3713"
       d="m 119.0967,79.961452 c 0,-11.69459 -9.47209,-21.16667 -21.16667,-21.16667 -11.694583,0 -21.166666,9.47208 -21.166666,21.16667 0,9.630833 6.429375,17.753543 15.213541,20.319998 -0.15875,4.25978 -1.11125,7.54061 -2.910416,9.76311 -4.074584,5.08 -13.043961,5.92667 -22.542501,6.79979 -7.46125,0.68792 -15.18708,1.42875 -21.51062,4.47146 V 83.215822 c 8.59895,-2.69875 14.81666,-10.71562 14.81666,-20.18771 0,-11.69458 -9.47208,-21.166664 -21.16666,-21.166664 -11.69459,0 -21.16667,9.472084 -21.16667,21.166664 0,9.47209 6.21771,17.48896 14.81667,20.18771 v 52.731448 c -8.59896,2.72521 -14.81667,10.74209 -14.81667,20.21417 0,11.69458 9.47208,21.16667 21.16667,21.16667 11.69458,0 21.16666,-9.47209 21.16666,-21.16667 0,-8.99583 -5.60916,-16.69521 -13.54666,-19.73792 0.8202,-1.37583 2.06375,-2.59292 3.94229,-3.54542 4.28625,-2.16958 10.68916,-2.75166 17.48896,-3.38666 11.165412,-1.03188 23.812496,-2.2225 31.273746,-11.48292 3.704166,-4.60375 5.582706,-10.53042 5.714996,-17.9652 8.36084,-2.857495 14.39334,-10.768535 14.39334,-20.081868 z M 38.663368,58.794782 c 2.32833,0 4.23333,1.905 4.23333,4.23333 0,2.32834 -1.905,4.23334 -4.23333,4.23334 -2.32834,0 -4.23334,-1.905 -4.23334,-4.23334 0,-2.32833 1.905,-4.23333 4.23334,-4.23333 z m 0,101.599988 c -2.32834,0 -4.23334,-1.905 -4.23334,-4.23333 0,-2.32833 1.905,-4.23333 4.23334,-4.23333 2.32833,0 4.23333,1.905 4.23333,4.23333 0,2.32833 -1.905,4.23333 -4.23333,4.23333 z M 97.93003,75.728112 c 2.32833,0 4.23333,1.905 4.23333,4.23334 0,2.32833 -1.905,4.23333 -4.23333,4.23333 -2.328333,0 -4.233333,-1.905 -4.233333,-4.23333 0,-2.32834 1.905,-4.23334 4.233333,-4.23334 z"
       inkscape:connector-curvature="0"
       style="stroke-width:0.26458332"
       sodipodi:nodetypes="ssscccccsssccssscccccssssssssssssssss" />
    <path
       style="stroke-width:0.26458332"
       d="m 166.99691,58.595571 c -3.17135,-0.0078 -6.35703,1.868379 -6.36085,5.814115 l 0,24.91095 c -8.58956,2.695758 -14.81667,10.715334 -14.81667,20.197214 0,9.47209 6.21771,17.48865 14.81667,20.1874 l 0,24.8244 c 0.004,3.9883 3.06361,5.9672 6.35859,5.97521 3.16919,0.008 6.32963,-1.99655 6.34141,-5.97521 l 0,-24.8244 c 8.59895,-2.69875 14.81666,-10.71531 14.81666,-20.1874 0,-9.48188 -6.2271,-17.501456 -14.81666,-20.197214 l 0,-24.91095 c -0.0118,-3.830105 -3.1678,-5.806317 -6.33915,-5.814115 z m -0.0109,46.688949 c 2.32833,0 4.23333,1.905 4.23333,4.23333 0,2.32834 -1.905,4.23334 -4.23333,4.23334 -2.32834,0 -4.23334,-1.905 -4.23334,-4.23334 0,-2.32833 1.905,-4.23333 4.23334,-4.23333 z"
       id="path3746"
       inkscape:connector-curvature="0"
       sodipodi:nodetypes="zccsccsccscczsssss" />
  </g>
</svg>
